HIERARCHY
ROOT Hips
{
 OFFSET 0.000000 0.000000 0.000000
 CHANNELS 6 Xposition Yposition Zposition Yrotation Xrotation Zrotation
 JOINT Chest
 {
  OFFSET 0.000000 9.585900 0.002600
  CHANNELS 3 Yrotation Xrotation Zrotation
  JOINT Chest2
  {
   OFFSET 0.000000 9.601200 -0.005300
   CHANNELS 3 Yrotation Xrotation Zrotation
   JOINT Chest3
   {
    OFFSET 0.000000 9.561800 0.000000
    CHANNELS 3 Yrotation Xrotation Zrotation
    JOINT Chest4
    {
     OFFSET 0.000000 9.552100 0.000000
     CHANNELS 3 Yrotation Xrotation Zrotation
     JOINT Neck
     {
      OFFSET 0.000000 14.453000 0.000000
      CHANNELS 3 Yrotation Xrotation Zrotation
      JOINT Head
      {
       OFFSET 0.000000 8.936500 -0.011300
       CHANNELS 3 Yrotation Xrotation Zrotation
       End Site
       {
        OFFSET 0.000000 17.073600 -0.006000
       }
      }
     }
     JOINT RightCollar
     {
      OFFSET -2.921100 9.558500 0.000000
      CHANNELS 3 Yrotation Xrotation Zrotation
      JOINT RightShoulder
      {
       OFFSET -13.519700 0.000000 0.000000
       CHANNELS 3 Yrotation Xrotation Zrotation
       JOINT RightElbow
       {
        OFFSET 0.000000 -29.696600 0.000000
        CHANNELS 3 Yrotation Xrotation Zrotation
        JOINT RightWrist
        {
         OFFSET 0.000000 -24.004700 0.000000
         CHANNELS 3 Yrotation Xrotation Zrotation
         End Site
         {
          OFFSET 0.000000 -17.728500 0.000000
         }
        }
       }
      }
     }
     JOINT LeftCollar
     {
      OFFSET 2.921100 9.558500 0.000000
      CHANNELS 3 Yrotation Xrotation Zrotation
      JOINT LeftShoulder
      {
       OFFSET 13.519700 0.000000 0.000000
       CHANNELS 3 Yrotation Xrotation Zrotation
       JOINT LeftElbow
       {
        OFFSET 0.000000 -29.696600 0.000000
        CHANNELS 3 Yrotation Xrotation Zrotation
        JOINT LeftWrist
        {
         OFFSET 0.000000 -24.004700 0.000000
         CHANNELS 3 Yrotation Xrotation Zrotation
         End Site
         {
          OFFSET 0.000000 -17.728500 0.000000
         }
        }
       }
      }
     }
    }
   }
  }
 }
 JOINT RightHip
 {
  OFFSET -7.771700 -0.012900 -0.001300
  CHANNELS 3 Yrotation Xrotation Zrotation
  JOINT RightKnee
  {
   OFFSET 0.000000 -40.869800 0.001200
   CHANNELS 3 Yrotation Xrotation Zrotation
   JOINT RightAnkle
   {
    OFFSET 0.000000 -39.717900 0.002100
    CHANNELS 3 Yrotation Xrotation Zrotation
    JOINT RightToe
    {
     OFFSET 0.000000 -4.965400 11.033500
     CHANNELS 3 Yrotation Xrotation Zrotation
     End Site
     {
      OFFSET 0.000000 -1.423100 5.872300
     }
    }
   }
  }
 }
 JOINT LeftHip
 {
  OFFSET 7.771700 -0.012900 -0.001300
  CHANNELS 3 Yrotation Xrotation Zrotation
  JOINT LeftKnee
  {
   OFFSET 0.000000 -40.869800 0.001200
   CHANNELS 3 Yrotation Xrotation Zrotation
   JOINT LeftAnkle
   {
    OFFSET 0.000000 -39.717900 0.002100
    CHANNELS 3 Yrotation Xrotation Zrotation
    JOINT LeftToe
    {
     OFFSET 0.000000 -4.965400 11.033500
     CHANNELS 3 Yrotation Xrotation Zrotation
     End Site
     {
      OFFSET 0.000000 -1.423100 5.872300
     }
    }
   }
  }
 }
}
MOTION
Frames: 8
Frame Time: 0.008333
0.000000 85.388000 0.000000 0.000000 -5.767877 0.000000 0.000000 11.653817 0.000000 0.000000 -5.885947 0.000000 0.000000 -0.000000 0.000000 0.000000 -0.000000 0.000000 0.000000 12.528835 0.000000 0.000000 0.711642 0.000000 0.000000 -0.000000 0.000000 0.000000 0.000000 -90.000000 0.000000 -2.309062 0.000000 0.000000 2.309062 0.000000 0.000000 -0.000000 0.000000 0.000000 -0.000000 90.000000 0.000000 -2.309062 0.000000 0.000000 2.309062 0.000000 0.000000 8.520406 0.000000 0.000000 1.905762 0.000000 -0.000000 -4.658285 0.000000 0.000000 -0.000000 0.000000 0.000000 8.520406 0.000000 0.000000 1.905762 0.000000 -0.000000 -4.658285 0.000000 0.000000 -0.000000 0.000000
-26.887853 55.895702 34.654876 -167.386184 -29.145186 -11.195031 -3.080839 14.048520 6.564727 -2.295886 8.215872 1.583557 -2.843822 10.303018 1.935114 -2.296081 8.220928 1.584039 0.479026 20.037223 -1.280953 0.782190 -4.540260 -1.471681 4.192458 -0.389689 -2.632425 -4.582800 -12.579185 3.147791 70.088382 -43.440313 -56.425334 10.358481 10.482918 -14.721445 -10.728856 0.890881 -4.213198 -6.364935 -14.147475 1.541632 -65.143860 -37.443059 64.196302 -3.186432 -1.085887 -2.297314 -25.264003 -28.509270 3.003277 76.280216 86.488496 73.774913 3.926235 -29.761393 -2.948820 -2.192572 3.943350 -0.988294 -14.807408 -45.303415 5.943547 178.063404 73.153090 175.934397 -1.477699 -26.793272 1.836603 -0.134469 -0.727677 -0.052147
-26.890911 55.894259 34.654549 -167.394820 -29.129024 -11.186886 -3.078233 14.043823 6.563830 -2.308289 8.289317 1.595223 -2.844588 10.308534 1.936627 -2.298618 8.239481 1.587152 0.444574 19.805263 -1.317922 0.772312 -4.757167 -1.500538 4.224044 -0.511084 -2.687354 -4.654384 -12.520576 3.198557 70.103213 -43.473147 -56.391654 10.369642 10.448326 -14.783709 -10.712410 0.787660 -4.204975 -6.351138 -14.127094 1.535875 -65.220132 -37.446919 64.207209 -3.163764 -1.046686 -2.248732 -25.260310 -28.528938 3.004856 76.347849 86.488077 73.842094 3.927604 -29.765969 -2.947551 -2.193428 3.944678 -0.989660 -14.806632 -45.321154 5.940015 178.040597 73.151436 175.912361 -1.483942 -26.795745 1.834124 -0.131597 -0.726460 -0.052371
-26.893938 55.893130 34.653434 -167.404873 -29.112915 -11.180613 -3.077226 14.077373 6.572896 -2.306483 8.272179 1.591684 -2.857437 10.361034 1.943400 -2.302377 8.256704 1.589943 0.425317 19.595033 -1.351764 0.759044 -4.994581 -1.530725 4.256794 -0.618273 -2.728687 -4.669487 -12.505815 3.215914 70.071235 -43.467446 -56.334089 10.323223 10.415771 -14.851421 -10.722479 0.703563 -4.178798 -6.307026 -14.137148 1.512500 -65.281567 -37.445964 64.195713 -3.141422 -1.010099 -2.193129 -25.257173 -28.545177 3.008634 76.382566 86.486349 73.873795 3.935990 -29.775983 -2.948553 -2.202099 3.951061 -0.991916 -14.805090 -45.337616 5.940853 178.026395 73.149107 175.897879 -1.488973 -26.799325 1.832715 -0.129109 -0.725782 -0.051709
-26.896719 55.892534 34.651308 -167.417924 -29.098892 -11.175697 -3.083651 14.154827 6.584588 -2.290704 8.213085 1.586263 -2.864679 10.389723 1.947226 -2.312653 8.292279 1.595028 0.409420 19.389246 -1.383724 0.748965 -5.226188 -1.559733 4.303347 -0.733675 -2.803897 -4.702884 -12.449808 3.264013 70.076361 -43.459402 -56.304252 10.287532 10.372544 -14.897239 -10.704189 0.611902 -4.170934 -6.294176 -14.128426 1.506560 -65.339385 -37.448169 64.177256 -3.128698 -0.966676 -2.138230 -25.247218 -28.559082 3.006255 76.425145 86.477734 73.920677 3.959002 -29.781657 -2.955789 -2.219073 3.951770 -1.000632 -14.810224 -45.350107 5.949953 178.025277 73.146530 175.890432 -1.488529 -26.803858 1.830765 -0.128382 -0.726098 -0.050594
-26.899512 55.892069 34.648876 -167.427729 -29.081869 -11.171216 -3.081903 14.159316 6.587319 -2.317937 8.310541 1.596288 -2.835464 10.289945 1.939291 -2.336733 8.365357 1.604385 0.415844 19.242072 -1.407829 0.718511 -5.510679 -1.586377 4.352574 -0.852311 -2.885950 -4.720025 -12.386453 3.315314 70.083705 -43.438398 -56.276797 10.249328 10.356496 -14.958360 -10.685706 0.524513 -4.161676 -6.282707 -14.066331 1.506739 -65.403444 -37.481952 64.233402 -3.131310 -0.941708 -2.112518 -25.248331 -28.573893 3.012046 76.451434 86.477014 73.943809 3.969088 -29.791144 -2.960835 -2.225471 3.956840 -1.000608 -14.817898 -45.365252 5.959141 178.035470 73.144450 175.893830 -1.486978 -26.808322 1.828055 -0.126956 -0.726059 -0.047775
-26.903399 55.892161 34.645349 -167.423564 -29.067108 -11.165830 -3.093560 14.168715 6.581171 -2.331449 8.347828 1.599751 -2.838694 10.309062 1.943002 -2.345080 8.377300 1.606818 0.392146 19.010926 -1.440792 0.720693 -5.710411 -1.613885 4.407995 -0.968155 -2.962863 -4.683307 -12.305968 3.330638 70.062036 -43.428003 -56.267614 10.227152 10.349011 -15.018446 -10.677718 0.440717 -4.142148 -6.252027 -14.060355 1.491402 -65.475249 -37.485810 64.193578 -3.116038 -0.880473 -2.026518 -25.255811 -28.588266 3.008296 76.549634 86.479058 74.042415 3.959067 -29.795527 -2.965319 -2.212105 3.951375 -0.993781 -14.840942 -45.377292 5.957343 178.073039 73.144067 175.920164 -1.472726 -26.809559 1.820076 -0.126361 -0.727436 -0.047275
-26.904720 55.891948 34.642741 -167.431152 -29.042450 -11.165182 -3.111330 14.238507 6.588093 -2.322043 8.314492 1.600196 -2.866384 10.383190 1.950066 -2.329161 8.333512 1.602696 0.367367 18.780403 -1.476445 0.724223 -5.906560 -1.644454 4.466924 -1.075970 -3.029096 -4.664029 -12.259547 3.348167 70.037276 -43.390260 -56.221041 10.279078 10.367121 -15.078094 -10.672773 0.361688 -4.117451 -6.216648 -14.058351 1.472300 -65.525880 -37.487737 64.144829 -3.102427 -0.838441 -1.948584 -25.262152 -28.607717 3.022031 76.577859 86.477679 74.070110 3.957679 -29.802403 -2.966469 -2.210781 3.952357 -0.995600 -14.856772 -45.399268 5.973155 178.091709 73.141595 175.934481 -1.470749 -26.813729 1.816906 -0.125630 -0.727467 -0.046839
